<svg width="135" height="131" viewBox="0 0 135 131" fill="none" xmlns="http://www.w3.org/2000/svg">
<path d="M63.3384 0.742188L58.9983 10.2441C56.7518 10.3756 54.5165 10.6469 52.3066 11.0562L45.6676 2.83562L38.5119 5.16859L38.4762 15.6276C35.445 17.1216 32.5401 18.928 29.7961 21.0362L19.683 16.6699L14.5054 21.9508L19.6827 31.3672C18.0309 33.6252 16.5794 36.0119 15.3432 38.5023L4.2398 38.7927L1.98535 45.7052L10.9501 52.0374C10.5209 54.6023 10.3113 57.1939 10.2994 59.7877L0.345703 64.624L1.38823 71.8018L12.3134 73.8525C12.9665 76.0453 13.7764 78.1923 14.7373 80.2783L7.53734 88.8492L11.556 94.9841L22.7484 92.472C23.4567 93.2711 24.1906 94.049 24.9493 94.8044C26.5338 96.376 28.2216 97.8487 30.0022 99.2136L27.8279 109.963L34.3688 113.586L42.9144 106.451C45.3596 107.394 47.8772 108.154 50.4445 108.724L53.2339 119.226L60.7635 119.815L65.2903 109.912C68.4185 109.731 71.5364 109.283 74.6024 108.561L81.794 116.551L88.8069 113.859L88.6016 109.809L72.2319 97.9063C67.4663 99.0616 62.5246 99.3708 57.6709 98.8458C48.6161 97.8669 39.9143 93.9458 33.0853 87.1739C17.4765 71.6935 17.9227 47.0688 34.0657 32.1019C41.8847 24.8523 51.9422 21.1745 62.011 21.0704C72.73 20.9593 83.4588 24.8974 91.507 32.8793C104.606 45.8709 106.391 65.4143 97.0852 80.21L106.202 86.8408C107.335 85.1364 108.359 83.3671 109.267 81.543L120.29 81.2523L122.544 74.3398L113.643 68.0508C114.072 65.4648 114.289 62.8506 114.293 60.2321L124.184 55.4127L123.142 48.235L112.226 46.1842C111.308 43.1522 110.09 40.2108 108.59 37.4L115.095 28.7611L110.746 22.8392L100.036 25.8213C99.9012 25.6846 99.7706 25.546 99.6342 25.4112C97.9484 23.7385 96.1441 22.1795 94.2342 20.7452L96.284 10.5939L89.7422 6.97109L81.6152 13.7562C78.9844 12.7409 76.2822 11.9507 73.5416 11.3636L70.8774 1.33172L63.3384 0.742188ZM46.7549 42.7148C43.8052 42.7471 40.8815 43.4416 38.2002 44.7055L51.095 54.0882C54.9948 56.9254 56.1009 62.3173 53.1082 66.1022C50.1146 69.8893 44.3664 70.4586 40.4102 67.581L27.5245 58.207C26.2051 64.9863 28.7036 72.1695 34.8228 76.6214C40.3106 80.6127 47.3537 81.36 53.4207 79.2704L54.7837 78.8001L55.9329 79.6377L94.4832 107.682L95.6324 108.52L95.5343 109.904C95.0675 116.07 97.6986 122.376 103.189 126.37C109.308 130.821 117.203 131.19 123.658 128.147L110.772 118.774C106.816 115.895 105.844 110.432 108.839 106.648C111.833 102.864 117.547 102.436 121.448 105.272L134.333 114.647C135.65 107.87 133.161 100.683 127.044 96.2323C121.537 92.2243 114.549 91.4302 108.518 93.4889L107.164 93.9505L106.014 93.1129L67.4641 65.0686L66.3149 64.2311L66.413 62.8557C66.855 56.7343 64.1745 50.498 58.669 46.4918C55.092 43.8898 50.9062 42.6695 46.7549 42.7148ZM59.1771 67.3926L105.907 101.393L102.69 105.469L55.9512 71.46L59.1771 67.3926Z" fill="#EDAA46"/>
</svg>
